<svg width="50" height="49" viewBox="0 0 50 49" fill="none" xmlns="http://www.w3.org/2000/svg">
<path d="M25 13.0156C25 19.3583 19.8604 24.5 13.5204 24.5H2.04077V13.0156C2.04077 6.67297 7.18035 1.53125 13.5204 1.53125C19.8604 1.53125 25 6.67297 25 13.0156Z" fill="#598EF7"/>
<path d="M25 35.9844C25 29.6417 30.1396 24.5 36.4796 24.5H47.9592V35.9844C47.9592 42.327 42.8196 47.4688 36.4796 47.4688C30.1396 47.4688 25 42.327 25 35.9844Z" fill="#598EF7"/>
<path d="M2.04077 35.9844C2.04077 42.327 7.18035 47.4688 13.5204 47.4688H25V35.9844C25 29.6417 19.8604 24.5 13.5204 24.5C7.18035 24.5 2.04077 29.6417 2.04077 35.9844Z" fill="#598EF7"/>
<path d="M47.9592 13.0156C47.9592 6.67297 42.8196 1.53125 36.4796 1.53125H25V13.0156C25 19.3583 30.1396 24.5 36.4796 24.5C42.8196 24.5 47.9592 19.3583 47.9592 13.0156Z" fill="#598EF7"/>
</svg>
