<svg width="435" height="227" viewBox="0 0 435 227" fill="none" xmlns="http://www.w3.org/2000/svg">
<path d="M4.44 212L8.64 168.38H19.5L29.04 202.04L29.46 204.2L29.94 202.04L39.42 168.38H50.34L54.42 212H46.56L44.22 179.12L44.04 176.24L43.32 179.12L33.84 211.4H25.02L15.42 179.06L14.7 176.24L14.52 179.06L12.3 212H4.44ZM66.4453 212.9C65.0453 212.9 63.8653 212.43 62.9053 211.49C61.9453 210.53 61.4653 209.36 61.4653 207.98C61.4653 206.6 61.9453 205.42 62.9053 204.44C63.8653 203.44 65.0453 202.94 66.4453 202.94C67.8253 202.94 68.9853 203.44 69.9253 204.44C70.8853 205.42 71.3653 206.6 71.3653 207.98C71.3653 209.36 70.8853 210.53 69.9253 211.49C68.9853 212.43 67.8253 212.9 66.4453 212.9Z" fill="#F7F9FF"/>
<path d="M106.542 212L91.2417 168.38H100.362L110.622 201.5L111.042 203.78L111.462 201.56L121.722 168.38H130.542L115.362 212H106.542ZM135.761 212V168.38H144.101V212H135.761ZM165.681 212.78C163.981 212.78 161.991 212.54 159.711 212.06C157.431 211.6 154.921 210.74 152.181 209.48L154.461 203.9C156.621 204.92 158.651 205.63 160.551 206.03C162.451 206.41 164.161 206.6 165.681 206.6C167.821 206.6 169.581 206.04 170.961 204.92C172.361 203.8 173.061 202.46 173.061 200.9C173.061 199.44 172.571 198.19 171.591 197.15C170.611 196.09 169.351 195.13 167.811 194.27C166.271 193.39 164.631 192.5 162.891 191.6C161.151 190.7 159.511 189.69 157.971 188.57C156.431 187.45 155.171 186.12 154.191 184.58C153.211 183.04 152.721 181.18 152.721 179C152.721 176.38 153.321 174.23 154.521 172.55C155.741 170.87 157.351 169.63 159.351 168.83C161.351 168.01 163.541 167.6 165.921 167.6C167.761 167.6 169.551 167.73 171.291 167.99C173.031 168.23 175.161 168.76 177.681 169.58L175.461 175.04C173.701 174.52 172.091 174.15 170.631 173.93C169.171 173.71 167.781 173.6 166.461 173.6C164.661 173.6 163.221 174.04 162.141 174.92C161.061 175.8 160.521 176.92 160.521 178.28C160.521 179.64 161.011 180.83 161.991 181.85C162.991 182.85 164.261 183.78 165.801 184.64C167.361 185.5 169.011 186.4 170.751 187.34C172.491 188.28 174.131 189.34 175.671 190.52C177.231 191.7 178.501 193.12 179.481 194.78C180.481 196.42 180.981 198.4 180.981 200.72C180.981 203.3 180.341 205.49 179.061 207.29C177.781 209.07 175.991 210.43 173.691 211.37C171.391 212.31 168.721 212.78 165.681 212.78ZM206.19 212.84C202.61 212.84 199.51 212.17 196.89 210.83C194.29 209.47 192.28 207.49 190.86 204.89C189.44 202.29 188.73 199.1 188.73 195.32V168.38H197.19V196.22C197.19 199.48 198.04 202.04 199.74 203.9C201.46 205.74 203.61 206.66 206.19 206.66C208.75 206.66 210.89 205.74 212.61 203.9C214.33 202.04 215.19 199.48 215.19 196.22V168.38H223.59V195.32C223.59 198.86 222.88 201.95 221.46 204.59C220.06 207.21 218.06 209.24 215.46 210.68C212.86 212.12 209.77 212.84 206.19 212.84ZM229.144 212L244.804 168.38H253.204L268.864 212H259.984L249.184 179.54L248.704 177.32L248.164 179.66L243.064 195.2L242.344 196.4L243.244 196.28H247.804C248.964 196.28 249.934 196.61 250.714 197.27C251.514 197.93 252.154 198.74 252.634 199.7C253.134 200.66 253.524 201.58 253.804 202.46H240.784L237.604 212H229.144ZM275.565 212V168.38H284.205V205.76H299.925V212H275.565ZM319.08 212.78C317.38 212.78 315.39 212.54 313.11 212.06C310.83 211.6 308.32 210.74 305.58 209.48L307.86 203.9C310.02 204.92 312.05 205.63 313.95 206.03C315.85 206.41 317.56 206.6 319.08 206.6C321.22 206.6 322.98 206.04 324.36 204.92C325.76 203.8 326.46 202.46 326.46 200.9C326.46 199.44 325.97 198.19 324.99 197.15C324.01 196.09 322.75 195.13 321.21 194.27C319.67 193.39 318.03 192.5 316.29 191.6C314.55 190.7 312.91 189.69 311.37 188.57C309.83 187.45 308.57 186.12 307.59 184.58C306.61 183.04 306.12 181.18 306.12 179C306.12 176.38 306.72 174.23 307.92 172.55C309.14 170.87 310.75 169.63 312.75 168.83C314.75 168.01 316.94 167.6 319.32 167.6C321.16 167.6 322.95 167.73 324.69 167.99C326.43 168.23 328.56 168.76 331.08 169.58L328.86 175.04C327.1 174.52 325.49 174.15 324.03 173.93C322.57 173.71 321.18 173.6 319.86 173.6C318.06 173.6 316.62 174.04 315.54 174.92C314.46 175.8 313.92 176.92 313.92 178.28C313.92 179.64 314.41 180.83 315.39 181.85C316.39 182.85 317.66 183.78 319.2 184.64C320.76 185.5 322.41 186.4 324.15 187.34C325.89 188.28 327.53 189.34 329.07 190.52C330.63 191.7 331.9 193.12 332.88 194.78C333.88 196.42 334.38 198.4 334.38 200.72C334.38 203.3 333.74 205.49 332.46 207.29C331.18 209.07 329.39 210.43 327.09 211.37C324.79 212.31 322.12 212.78 319.08 212.78ZM342.128 212V168.38H350.468V212H342.128ZM360.468 212V168.38H386.628V174.56H369.048V205.82H387.588V212H360.468ZM371.328 192.14C371.588 191.26 371.958 190.35 372.438 189.41C372.938 188.47 373.588 187.68 374.388 187.04C375.188 186.4 376.168 186.08 377.328 186.08H384.588V192.14H371.328ZM395.742 212V168.92C397.902 168.56 399.732 168.28 401.232 168.08C402.732 167.88 404.112 167.74 405.372 167.66C406.632 167.58 407.982 167.54 409.422 167.54C412.562 167.54 415.432 168.07 418.032 169.13C420.632 170.17 422.702 171.69 424.242 173.69C425.802 175.69 426.582 178.1 426.582 180.92C426.582 183.28 426.032 185.35 424.932 187.13C423.852 188.91 422.422 190.34 420.642 191.42L418.962 192.08L420.282 192.74C421.502 193.78 422.452 195.01 423.132 196.43C423.812 197.83 424.382 199.37 424.842 201.05C425.322 202.73 425.822 204.5 426.342 206.36C426.862 208.2 427.562 210.08 428.442 212H419.622C418.922 210.46 418.342 208.83 417.882 207.11C417.442 205.39 417.002 203.7 416.562 202.04C416.122 200.38 415.572 198.85 414.912 197.45C414.252 196.05 413.362 194.92 412.242 194.06C411.402 194.12 410.502 194.12 409.542 194.06C408.602 194 407.622 193.82 406.602 193.52C406.902 192.76 407.282 191.97 407.742 191.15C408.202 190.33 408.762 189.62 409.422 189.02C410.082 188.42 410.862 188.08 411.762 188C412.862 187.9 413.862 187.54 414.762 186.92C415.682 186.28 416.412 185.45 416.952 184.43C417.492 183.39 417.762 182.22 417.762 180.92C417.762 179.54 417.392 178.31 416.652 177.23C415.912 176.13 414.912 175.27 413.652 174.65C412.392 174.03 410.982 173.72 409.422 173.72C408.342 173.72 407.502 173.75 406.902 173.81C406.302 173.87 405.462 173.96 404.382 174.08V212H395.742Z" fill="#598EF7"/>
<path d="M217 31.2244C217 46.4404 204.665 58.7754 189.449 58.7754H161.898V31.2244C161.898 16.0083 174.233 3.67334 189.449 3.67334C204.665 3.67334 217 16.0083 217 31.2244Z" fill="#598EF7"/>
<path d="M217 86.3264C217 71.1104 229.335 58.7754 244.551 58.7754H272.102V86.3264C272.102 101.542 259.767 113.877 244.551 113.877C229.335 113.877 217 101.542 217 86.3264Z" fill="#598EF7"/>
<path d="M161.898 86.3264C161.898 101.542 174.233 113.877 189.449 113.877H217V86.3264C217 71.1104 204.665 58.7754 189.449 58.7754C174.233 58.7754 161.898 71.1104 161.898 86.3264Z" fill="#598EF7"/>
<path d="M272.102 31.2244C272.102 16.0083 259.767 3.67334 244.551 3.67334H217V31.2244C217 46.4404 229.335 58.7754 244.551 58.7754C259.767 58.7754 272.102 46.4404 272.102 31.2244Z" fill="#598EF7"/>
</svg>
