<svg width="143" height="21" viewBox="0 0 143 21" fill="none" xmlns="http://www.w3.org/2000/svg">
<path d="M28.184 16L29.304 4.368H32.2L34.744 13.344L34.856 13.92L34.984 13.344L37.512 4.368H40.424L41.512 16H39.416L38.792 7.232L38.744 6.464L38.552 7.232L36.024 15.84H33.672L31.112 7.216L30.92 6.464L30.872 7.216L30.28 16H28.184ZM44.7188 16.24C44.3454 16.24 44.0308 16.1147 43.7747 15.864C43.5188 15.608 43.3908 15.296 43.3908 14.928C43.3908 14.56 43.5188 14.2453 43.7747 13.984C44.0308 13.7173 44.3454 13.584 44.7188 13.584C45.0868 13.584 45.3961 13.7173 45.6468 13.984C45.9028 14.2453 46.0308 14.56 46.0308 14.928C46.0308 15.296 45.9028 15.608 45.6468 15.864C45.3961 16.1147 45.0868 16.24 44.7188 16.24Z" fill="#F7F9FF"/>
<path d="M55.4111 16L51.3311 4.368H53.7631L56.4991 13.2L56.6111 13.808L56.7231 13.216L59.4591 4.368H61.8111L57.7631 16H55.4111ZM63.203 16V4.368H65.427V16H63.203ZM71.1816 16.208C70.7283 16.208 70.1976 16.144 69.5896 16.016C68.9816 15.8933 68.3123 15.664 67.5816 15.328L68.1896 13.84C68.7656 14.112 69.307 14.3013 69.8136 14.408C70.3203 14.5093 70.7763 14.56 71.1816 14.56C71.7523 14.56 72.2216 14.4107 72.5896 14.112C72.963 13.8133 73.1496 13.456 73.1496 13.04C73.1496 12.6507 73.019 12.3173 72.7576 12.04C72.4963 11.7573 72.1603 11.5013 71.7496 11.272C71.339 11.0373 70.9016 10.8 70.4376 10.56C69.9736 10.32 69.5363 10.0507 69.1256 9.752C68.715 9.45333 68.379 9.09867 68.1176 8.688C67.8563 8.27733 67.7256 7.78133 67.7256 7.2C67.7256 6.50133 67.8856 5.928 68.2056 5.48C68.531 5.032 68.9603 4.70133 69.4936 4.488C70.027 4.26933 70.611 4.16 71.2456 4.16C71.7363 4.16 72.2136 4.19467 72.6776 4.264C73.1416 4.328 73.7096 4.46933 74.3816 4.688L73.7896 6.144C73.3203 6.00533 72.891 5.90667 72.5016 5.848C72.1123 5.78933 71.7416 5.76 71.3896 5.76C70.9096 5.76 70.5256 5.87733 70.2376 6.112C69.9496 6.34667 69.8056 6.64533 69.8056 7.008C69.8056 7.37067 69.9363 7.688 70.1976 7.96C70.4643 8.22667 70.803 8.47467 71.2136 8.704C71.6296 8.93333 72.0696 9.17333 72.5336 9.424C72.9976 9.67467 73.435 9.95733 73.8456 10.272C74.2616 10.5867 74.6003 10.9653 74.8616 11.408C75.1283 11.8453 75.2616 12.3733 75.2616 12.992C75.2616 13.68 75.091 14.264 74.7496 14.744C74.4083 15.2187 73.931 15.5813 73.3176 15.832C72.7043 16.0827 71.9923 16.208 71.1816 16.208ZM81.984 16.224C81.0293 16.224 80.2027 16.0453 79.504 15.688C78.8107 15.3253 78.2747 14.7973 77.896 14.104C77.5173 13.4107 77.328 12.56 77.328 11.552V4.368H79.584V11.792C79.584 12.6613 79.8107 13.344 80.264 13.84C80.7227 14.3307 81.296 14.576 81.984 14.576C82.6667 14.576 83.2373 14.3307 83.696 13.84C84.1547 13.344 84.384 12.6613 84.384 11.792V4.368H86.624V11.552C86.624 12.496 86.4347 13.32 86.056 14.024C85.6827 14.7227 85.1493 15.264 84.456 15.648C83.7627 16.032 82.9387 16.224 81.984 16.224ZM88.105 16L92.281 4.368H94.521L98.697 16H96.329L93.449 7.344L93.321 6.752L93.177 7.376L91.817 11.52L91.625 11.84L91.865 11.808H93.081C93.3903 11.808 93.649 11.896 93.857 12.072C94.0703 12.248 94.241 12.464 94.369 12.72C94.5023 12.976 94.6063 13.2213 94.681 13.456H91.209L90.361 16H88.105ZM100.484 16V4.368H102.788V14.336H106.98V16H100.484ZM112.088 16.208C111.635 16.208 111.104 16.144 110.496 16.016C109.888 15.8933 109.219 15.664 108.488 15.328L109.096 13.84C109.672 14.112 110.213 14.3013 110.72 14.408C111.227 14.5093 111.683 14.56 112.088 14.56C112.659 14.56 113.128 14.4107 113.496 14.112C113.869 13.8133 114.056 13.456 114.056 13.04C114.056 12.6507 113.925 12.3173 113.664 12.04C113.403 11.7573 113.067 11.5013 112.656 11.272C112.245 11.0373 111.808 10.8 111.344 10.56C110.88 10.32 110.443 10.0507 110.032 9.752C109.621 9.45333 109.285 9.09867 109.024 8.688C108.763 8.27733 108.632 7.78133 108.632 7.2C108.632 6.50133 108.792 5.928 109.112 5.48C109.437 5.032 109.867 4.70133 110.4 4.488C110.933 4.26933 111.517 4.16 112.152 4.16C112.643 4.16 113.12 4.19467 113.584 4.264C114.048 4.328 114.616 4.46933 115.288 4.688L114.696 6.144C114.227 6.00533 113.797 5.90667 113.408 5.848C113.019 5.78933 112.648 5.76 112.296 5.76C111.816 5.76 111.432 5.87733 111.144 6.112C110.856 6.34667 110.712 6.64533 110.712 7.008C110.712 7.37067 110.843 7.688 111.104 7.96C111.371 8.22667 111.709 8.47467 112.12 8.704C112.536 8.93333 112.976 9.17333 113.44 9.424C113.904 9.67467 114.341 9.95733 114.752 10.272C115.168 10.5867 115.507 10.9653 115.768 11.408C116.035 11.8453 116.168 12.3733 116.168 12.992C116.168 13.68 115.997 14.264 115.656 14.744C115.315 15.2187 114.837 15.5813 114.224 15.832C113.611 16.0827 112.899 16.208 112.088 16.208ZM118.234 16V4.368H120.458V16H118.234ZM123.125 16V4.368H130.101V6.016H125.413V14.352H130.357V16H123.125ZM126.021 10.704C126.09 10.4693 126.189 10.2267 126.317 9.976C126.45 9.72533 126.624 9.51467 126.837 9.344C127.05 9.17333 127.312 9.088 127.621 9.088H129.557V10.704H126.021ZM132.531 16V4.512C133.107 4.416 133.595 4.34133 133.995 4.288C134.395 4.23467 134.763 4.19733 135.099 4.176C135.435 4.15467 135.795 4.144 136.179 4.144C137.016 4.144 137.782 4.28533 138.475 4.568C139.168 4.84533 139.72 5.25067 140.131 5.784C140.547 6.31733 140.755 6.96 140.755 7.712C140.755 8.34133 140.608 8.89333 140.315 9.368C140.027 9.84267 139.646 10.224 139.171 10.512L138.723 10.688L139.075 10.864C139.4 11.1413 139.654 11.4693 139.835 11.848C140.016 12.2213 140.168 12.632 140.291 13.08C140.419 13.528 140.552 14 140.691 14.496C140.83 14.9867 141.016 15.488 141.251 16H138.899C138.712 15.5893 138.558 15.1547 138.435 14.696C138.318 14.2373 138.2 13.7867 138.083 13.344C137.966 12.9013 137.819 12.4933 137.643 12.12C137.467 11.7467 137.23 11.4453 136.931 11.216C136.707 11.232 136.467 11.232 136.211 11.216C135.96 11.2 135.699 11.152 135.427 11.072C135.507 10.8693 135.608 10.6587 135.731 10.44C135.854 10.2213 136.003 10.032 136.179 9.872C136.355 9.712 136.563 9.62133 136.803 9.6C137.096 9.57333 137.363 9.47733 137.603 9.312C137.848 9.14133 138.043 8.92 138.187 8.648C138.331 8.37067 138.403 8.05867 138.403 7.712C138.403 7.344 138.304 7.016 138.107 6.728C137.91 6.43467 137.643 6.20533 137.307 6.04C136.971 5.87467 136.595 5.792 136.179 5.792C135.891 5.792 135.667 5.8 135.507 5.816C135.347 5.832 135.123 5.856 134.835 5.888V16H132.531Z" fill="#598EF7"/>
<path d="M10 5.20414C10 7.74014 7.94417 9.79598 5.40817 9.79598H0.81633V5.20414C0.81633 2.66814 2.87216 0.612305 5.40817 0.612305C7.94417 0.612305 10 2.66814 10 5.20414Z" fill="#598EF7"/>
<path d="M10 14.3877C10 11.8517 12.0558 9.7959 14.5918 9.7959H19.1837V14.3877C19.1837 16.9237 17.1278 18.9796 14.5918 18.9796C12.0558 18.9796 10 16.9237 10 14.3877Z" fill="#598EF7"/>
<path d="M0.81633 14.3877C0.81633 16.9237 2.87216 18.9796 5.40817 18.9796H10V14.3877C10 11.8517 7.94417 9.7959 5.40817 9.7959C2.87216 9.7959 0.81633 11.8517 0.81633 14.3877Z" fill="#598EF7"/>
<path d="M19.1837 5.20414C19.1837 2.66814 17.1278 0.612305 14.5918 0.612305H10V5.20414C10 7.74014 12.0558 9.79598 14.5918 9.79598C17.1278 9.79598 19.1837 7.74014 19.1837 5.20414Z" fill="#598EF7"/>
</svg>
